<svg width="16" height="16" viewBox="0 0 16 16" fill="none" xmlns="http://www.w3.org/2000/svg">
<g clip-path="url(#clip0_5_263)">
<rect width="16" height="16" fill="white"/>
<path d="M4.89423 14.5C4.71423 14.5 4.62423 14.434 4.62423 14.302C4.62423 14.194 4.70223 14.122 4.85823 14.086L5.27223 14.014C5.52423 13.966 5.68623 13.9 5.75823 13.816C5.84223 13.732 5.88423 13.564 5.88423 13.312V2.728C5.88423 2.476 5.84223 2.308 5.75823 2.224C5.68623 2.14 5.52423 2.074 5.27223 2.026L4.85823 1.954C4.70223 1.918 4.62423 1.846 4.62423 1.738C4.62423 1.606 4.71423 1.54 4.89423 1.54H8.18823C8.36823 1.54 8.45823 1.612 8.45823 1.756C8.45823 1.864 8.39223 1.93 8.26023 1.954L7.77423 2.026C7.52223 2.062 7.35423 2.128 7.27023 2.224C7.19823 2.32 7.16223 2.494 7.16223 2.746V12.826C7.16223 13.258 7.28223 13.57 7.52223 13.762C7.77423 13.954 8.08623 14.05 8.45823 14.05C8.73423 14.05 9.01623 13.996 9.30423 13.888C9.60423 13.768 9.87423 13.552 10.1142 13.24C10.3542 12.916 10.5342 12.448 10.6542 11.836L10.8882 10.63C10.9242 10.474 11.0142 10.396 11.1582 10.396C11.3262 10.396 11.3982 10.498 11.3742 10.702L11.1582 14.086C11.1342 14.362 10.9842 14.5 10.7082 14.5H4.89423Z" fill="black"/>
</g>
<defs>
<clipPath id="clip0_5_263">
<rect width="16" height="16" fill="white"/>
</clipPath>
</defs>
</svg>
